<!-- Generated by IcoMoon.io -->
<svg version="1.1" xmlns="http://www.w3.org/2000/svg" width="6006" height="1024" viewBox="0 0 6006 1024">
<title></title>
<g id="icomoon-ignore">
</g>
<path fill="#004060" d="M24.853 974.294l469.687-918.611 292.257 900.68-21.078 6.606-70.783-217.698-670.083 229.024zM489.821 113.568l-420.611 821.717 618.804-211.092-198.194-610.625z"></path>
<path fill="#004060" d="M863.872 986.249l-298.863-920.499 570.357 226.822-271.494 693.677zM600.873 103.816l265.202 816.683 240.978-615.658-506.18-201.025z"></path>
<path fill="#004060" d="M934.341 976.496l247.585-639.567 292.257 351.4-539.841 288.167zM1189.161 380.028l-212.665 548.965 463.395-247.585-250.731-301.38z"></path>
<path fill="#3863a7" d="M72.356 954.79c0 14.786-11.955 26.74-26.74 26.74s-26.74-11.955-26.74-26.74 11.955-26.74 26.74-26.74 26.74 11.955 26.74 26.74z"></path>
<path fill="#3863a7" d="M521.28 84.625c0 14.786-11.955 26.74-26.74 26.74s-26.74-11.955-26.74-26.74c0-14.786 11.955-26.74 26.74-26.74s26.74 11.955 26.74 26.74z"></path>
<path fill="#3863a7" d="M609.681 84.625c0 14.786-11.955 26.74-26.74 26.74s-26.74-11.955-26.74-26.74c0-14.786 11.955-26.74 26.74-26.74s26.74 11.955 26.74 26.74z"></path>
<path fill="#3863a7" d="M1145.118 300.436c0 14.786-11.955 26.74-26.74 26.74s-26.74-11.955-26.74-26.74c0-14.786 11.955-26.74 26.74-26.74s26.74 11.955 26.74 26.74v0z"></path>
<path fill="#3863a7" d="M1213.070 358.321c0 14.786-11.955 26.74-26.74 26.74s-26.74-11.955-26.74-26.74c0-14.786 11.955-26.74 26.74-26.74s26.74 11.955 26.74 26.74z"></path>
<path fill="#3863a7" d="M1484.249 685.498c0 14.786-11.955 26.74-26.74 26.74s-26.74-11.955-26.74-26.74c0-14.786 11.955-26.74 26.74-26.74 14.786 0.315 26.74 12.269 26.74 26.74z"></path>
<path fill="#3863a7" d="M982.474 953.217c0 14.786-11.955 26.74-26.74 26.74s-26.74-11.955-26.74-26.74 11.955-26.74 26.74-26.74 26.74 11.955 26.74 26.74z"></path>
<path fill="#3863a7" d="M893.129 953.217c0 14.786-11.955 26.74-26.74 26.74s-26.74-11.955-26.74-26.74 11.955-26.74 26.74-26.74 26.74 11.955 26.74 26.74z"></path>
<path fill="#3863a7" d="M802.527 953.217c0 14.786-11.955 26.74-26.74 26.74s-26.74-11.955-26.74-26.74 11.955-26.74 26.74-26.74 26.74 11.955 26.74 26.74z"></path>
<path fill="#3863a7" d="M724.193 729.856c0 14.786-11.955 26.74-26.74 26.74s-26.74-11.955-26.74-26.74c0-14.786 11.955-26.74 26.74-26.74s26.74 11.955 26.74 26.74z"></path>
<path fill="#3863a7" d="M714.441 729.856c0 9.438-7.55 16.988-16.988 16.988s-16.988-7.55-16.988-16.988c0-9.438 7.55-16.988 16.988-16.988s16.988 7.55 16.988 16.988z"></path>
<path fill="#3863a7" d="M598.985 83.053c0 7.865-6.292 14.157-14.157 14.157s-14.157-6.292-14.157-14.157c0-7.865 6.292-14.157 14.157-14.157s14.157 6.292 14.157 14.157z"></path>
<path fill="#004060" d="M1557.55 981.215l82.423-520.651h116.399l-82.423 520.651h-116.399z"></path>
<path fill="#004060" d="M1746.305 981.215l82.423-520.651h117.029l129.298 307.672 48.447-307.672h116.399l-82.423 520.651h-115.77l-131.185-302.009-47.818 302.009h-116.399z"></path>
<path fill="#004060" d="M2223.543 981.215l82.423-520.651h117.029l129.298 307.672 48.447-307.672h116.399l-82.423 520.651h-115.141l-131.185-302.009-47.818 302.009h-117.029z"></path>
<path fill="#004060" d="M2890.48 464.968c17.617-3.775 32.088-5.348 45.616-6.606 12.898-0.629 29.257-1.258 49.076-1.258 19.505 0 37.122 1.258 51.593 3.146s29.257 5.348 43.728 11.011c14.471 5.348 26.74 12.269 37.751 20.763 32.718 28.628 49.076 77.075 49.076 145.027 0 30.201-3.146 63.233-7.865 97.524-5.348 34.605-12.269 64.806-19.505 89.659s-15.73 46.245-24.224 63.233c-8.494 17.617-18.876 32.088-31.459 44.358-12.269 12.269-24.224 21.707-35.864 28.628s-25.482 12.269-42.47 15.73c-26.111 5.348-54.11 8.494-83.682 8.494s-51.593-0.629-66.694-2.517c-14.471-1.888-29.257-4.719-44.358-9.752-14.471-4.719-27.37-11.64-37.122-20.134-22.965-19.505-38.066-46.56-44.987-82.423-3.146-16.359-4.090-31.459-4.090-44.358s0-26.74 0.629-41.841c0-15.1 3.146-39.324 8.494-72.671s12.269-63.548 20.134-89.659 16.359-48.447 24.853-66.065 19.505-32.718 32.088-44.987c12.898-12.269 24.853-21.707 36.493-28.628 11.011-8.179 25.167-12.898 42.785-16.673v0zM2882.615 604.018c-5.977 12.269-11.64 27.37-16.988 46.56s-11.011 45.616-15.73 78.963c-5.348 33.347-7.865 55.054-7.865 66.694s0.629 21.392 1.258 29.572c0.629 8.494 2.517 16.359 5.348 22.965s7.865 12.584 14.471 17.617c11.64 7.236 30.201 11.64 56.312 11.64s46.245-4.090 60.716-12.269c13.842-7.865 26.111-22.965 36.493-44.987 9.752-21.707 17.617-50.964 23.594-86.198 6.606-41.841 9.752-71.727 9.752-88.715s-1.258-31.459-3.146-42.47c-1.888-11.011-6.606-18.876-13.842-24.853s-15.73-9.752-24.224-12.269c-9.123-1.888-21.392-3.146-37.122-3.146s-27.999 0.629-37.751 2.517c-9.752 1.888-18.876 5.348-27.999 11.64-10.067 5.977-17.303 14.471-23.28 26.74v0z"></path>
<path fill="#004060" d="M3207.59 460.879h123.006l41.212 372.478 165.161-372.478h129.298l-247.585 520.651h-137.477l-73.615-520.651z"></path>
<path fill="#004060" d="M3521.239 981.215l252.304-520.651h135.275l81.794 520.651h-119.545l-18.246-104.445h-152.892l-49.076 104.445h-129.612zM3744.6 776.101h98.782l-23.594-166.734-75.188 166.734z"></path>
<path fill="#004060" d="M4011.060 566.896l16.988-106.018h393.241l-16.988 106.018h-140.623l-65.435 414.319h-116.399l65.435-414.319h-136.219z"></path>
<path fill="#004060" d="M4389.515 981.215l82.423-520.651h116.399l-82.423 520.651h-116.399z"></path>
<path fill="#004060" d="M4766.083 464.968c17.617-3.775 32.088-5.348 45.616-6.606 12.898-0.629 29.257-1.258 49.076-1.258 19.505 0 37.122 1.258 51.593 3.146s29.257 5.348 43.728 11.011c14.471 5.348 26.74 12.269 37.751 20.763 32.718 28.628 49.076 77.075 49.076 145.027 0 30.201-2.517 63.233-7.865 97.524s-12.269 64.806-19.505 89.659c-7.236 24.853-15.73 46.245-24.224 63.233-8.494 17.617-18.876 32.088-31.459 44.358-12.269 12.269-24.224 21.707-35.864 28.628s-25.482 12.269-42.47 15.73c-26.111 5.348-54.11 8.494-83.682 8.494s-51.593-0.629-66.694-2.517c-14.471-1.888-29.257-4.719-44.358-9.752-14.471-4.719-27.37-11.64-37.122-20.134-22.965-19.505-38.066-46.56-44.987-82.423-3.146-16.359-4.404-31.459-4.404-44.358s0-26.74 0.629-41.841c0-15.1 3.146-39.324 8.494-72.671s12.269-63.548 20.134-89.659 16.359-48.447 24.853-66.065 19.505-32.718 32.088-44.987c12.898-12.269 24.853-21.707 36.493-28.628 11.64-8.179 26.111-12.898 43.099-16.673v0zM4758.218 604.018c-5.977 12.269-11.64 27.37-16.988 46.56s-11.011 45.616-15.73 78.963c-5.348 33.347-7.865 55.054-7.865 66.694s0.629 21.392 1.258 29.572 2.517 16.359 5.348 22.965c3.146 6.606 7.865 12.584 14.471 17.617 11.64 7.236 30.201 11.64 56.312 11.64s46.245-4.090 60.716-12.269c13.842-7.865 26.111-22.965 36.493-44.987 9.752-21.707 17.617-50.964 23.594-86.198 6.606-41.841 9.752-71.727 9.752-88.715s-1.258-31.459-3.146-42.47c-1.888-11.011-6.606-18.876-13.842-24.853s-15.73-9.752-24.224-12.269c-9.123-1.888-21.392-3.146-37.122-3.146s-27.999 0.629-37.751 2.517c-9.752 1.888-18.876 5.348-27.999 11.64-9.123 5.977-16.988 14.471-23.28 26.74v0z"></path>
<path fill="#004060" d="M5050.79 981.215l82.423-520.651h117.029l129.298 307.672 48.447-307.672h116.399l-82.423 520.651h-115.141l-131.185-302.009-47.818 302.009h-117.029z"></path>
<path fill="#004060" d="M5728.423 881.175c16.988 0 30.83-3.146 41.212-7.865 10.382-5.348 16.988-15.1 19.505-29.572l3.146-20.763c1.258-8.494 1.888-15.73 0.629-21.707-1.888-12.584-13.842-19.505-37.122-19.505h-61.975c-49.076 0-83.682-15.1-103.816-45.616-12.898-20.134-19.505-44.987-19.505-74.559 0-7.236 0.629-16.359 2.517-25.482l7.236-56.941c8.494-56.941 33.976-92.805 77.075-108.535 24.224-9.123 67.323-13.213 129.298-13.213s114.512 7.236 158.24 21.707l-13.842 90.917c-52.852-4.719-109.793-7.236-171.139-7.236-20.763 0-35.234 2.517-44.358 7.236s-15.1 16.359-18.246 34.605l-3.146 17.617c-1.258 5.348-1.258 11.64-1.258 18.246s2.517 12.584 7.865 17.617c5.348 4.719 17.617 7.236 37.122 7.236h64.806c19.505 0 36.493 3.146 50.964 9.752s26.111 14.471 33.347 24.224c16.359 22.336 24.853 46.56 24.853 71.098 0 11.011-0.629 23.594-1.258 38.066l-3.146 46.245c-3.146 50.335-20.134 85.569-50.335 105.074-18.246 12.269-35.864 19.505-53.481 21.707-22.336 3.146-51.593 4.719-87.457 4.719s-67.952-1.258-94.692-4.090c-27.37-3.146-54.739-9.123-81.165-18.246l13.842-90.917c44.358 5.663 102.557 8.179 174.284 8.179v0z"></path>
</svg>
