<!-- Generated by IcoMoon.io -->
<svg version="1.1" xmlns="http://www.w3.org/2000/svg" width="2580" height="1024" viewBox="0 0 2580 1024">
<title></title>
<g id="icomoon-ignore">
</g>
<path fill="#004060" d="M230.063 933.942l294.858-576.41 183.394 565.225-13.306 4.243-44.354-136.726-420.592 143.669zM522.028 393.787l-264.003 515.857 388.387-132.484-124.384-383.373z"></path>
<path fill="#004060" d="M756.719 941.463l-187.637-577.76 357.918 142.319-170.281 435.441zM591.644 387.616l166.424 512.579 151.189-386.459-317.614-126.12z"></path>
<path fill="#004060" d="M801.073 935.485l155.432-401.501 183.394 220.613-338.826 180.887zM960.94 560.982l-133.448 344.612 290.808-155.432-157.36-189.18z"></path>
<path fill="#9baec2" d="M243.562 924.878c-1.35 0-2.7-0.771-3.278-2.121l-163.339-402.465c-0.771-1.736 0.193-3.857 1.928-4.435 1.736-0.771 3.857 0.193 4.628 1.928l163.339 402.272c0.771 1.736-0.193 3.857-1.928 4.628-0.579 0.193-0.964 0.193-1.35 0.193z"></path>
<path fill="#9baec2" d="M524.342 377.588h-199.4c-1.928 0-3.471-1.543-3.471-3.471s1.543-3.471 3.471-3.471h199.4c1.928 0 3.471 1.543 3.471 3.471s-1.543 3.471-3.471 3.471z"></path>
<path fill="#9baec2" d="M523.378 377.009c-1.928 0-3.471-1.543-3.471-3.278l-13.113-324.556c0-1.928 1.35-3.471 3.278-3.664 1.928 0 3.471 1.35 3.664 3.278l13.113 324.556c0 1.928-1.35 3.471-3.471 3.664 0 0 0 0 0 0z"></path>
<path fill="#9baec2" d="M580.652 376.238c-0.771 0-1.543-0.193-2.121-0.771-1.543-1.157-1.928-3.278-0.771-4.821l172.788-230.448c1.157-1.543 3.278-1.928 4.821-0.771s1.928 3.278 0.771 4.821l-172.788 230.448c-0.579 0.964-1.543 1.543-2.7 1.543z"></path>
<path fill="#9baec2" d="M917.357 509.493c-0.193 0-0.386 0-0.579 0-1.928-0.193-3.278-2.121-2.893-3.857l43.004-300.836c0.193-1.928 1.928-3.278 3.857-2.893 1.928 0.193 3.278 2.121 2.893 3.857l-43.004 300.836c-0.193 1.543-1.543 2.893-3.278 2.893z"></path>
<path fill="#9baec2" d="M958.047 550.183c-0.964 0-1.928-0.386-2.7-1.157-1.35-1.35-1.157-3.664 0.386-4.821l270.367-237.776c1.35-1.35 3.664-1.157 4.821 0.386 1.35 1.35 1.157 3.664-0.386 4.821l-270.174 237.776c-0.579 0.579-1.543 0.771-2.314 0.771z"></path>
<path fill="#9baec2" d="M1129.871 749.391c-0.386 0-0.964 0-1.35-0.193-1.736-0.771-2.7-2.7-1.928-4.628l73.088-177.223c0.771-1.736 2.7-2.7 4.628-1.928 1.736 0.771 2.7 2.7 1.928 4.628l-73.088 177.223c-0.771 1.35-1.928 2.121-3.278 2.121z"></path>
<path fill="#9baec2" d="M2534.352 956.89h-1824.494c-1.543 0-2.893-1.157-3.278-2.7l-9.256-36.255c-0.386-1.928 0.579-3.664 2.507-4.243 1.928-0.386 3.664 0.579 4.243 2.507l8.485 33.748h1821.602c1.928 0 3.471 1.543 3.471 3.471 0.193 1.928-1.35 3.471-3.278 3.471z"></path>
<path fill="#3863a7" d="M259.953 921.793c0 9.266-7.511 16.777-16.777 16.777s-16.777-7.511-16.777-16.777c0-9.266 7.511-16.777 16.777-16.777s16.777 7.511 16.777 16.777z"></path>
<path fill="#3863a7" d="M541.698 375.66c0 9.266-7.511 16.777-16.777 16.777s-16.777-7.511-16.777-16.777c0-9.266 7.511-16.777 16.777-16.777s16.777 7.511 16.777 16.777z"></path>
<path fill="#3863a7" d="M597.237 375.66c0 9.266-7.511 16.777-16.777 16.777s-16.777-7.511-16.777-16.777c0-9.266 7.511-16.777 16.777-16.777s16.777 7.511 16.777 16.777z"></path>
<path fill="#3863a7" d="M933.363 511.036c0 9.266-7.511 16.777-16.777 16.777s-16.777-7.511-16.777-16.777c0-9.266 7.511-16.777 16.777-16.777s16.777 7.511 16.777 16.777z"></path>
<path fill="#3863a7" d="M975.982 547.483c0 9.266-7.511 16.777-16.777 16.777s-16.777-7.511-16.777-16.777c0-9.266 7.511-16.777 16.777-16.777s16.777 7.511 16.777 16.777z"></path>
<path fill="#3863a7" d="M1146.070 752.862c0 9.266-7.511 16.777-16.777 16.777s-16.777-7.511-16.777-16.777c0-9.266 7.511-16.777 16.777-16.777s16.777 7.511 16.777 16.777z"></path>
<path fill="#3863a7" d="M831.156 920.829c0 9.266-7.511 16.777-16.777 16.777s-16.777-7.511-16.777-16.777c0-9.266 7.511-16.777 16.777-16.777s16.777 7.511 16.777 16.777z"></path>
<path fill="#3863a7" d="M775.039 920.829c0 9.266-7.511 16.777-16.777 16.777s-16.777-7.511-16.777-16.777c0-9.266 7.511-16.777 16.777-16.777s16.777 7.511 16.777 16.777z"></path>
<path fill="#3863a7" d="M718.343 920.829c0 9.266-7.511 16.777-16.777 16.777s-16.777-7.511-16.777-16.777c0-9.266 7.511-16.777 16.777-16.777s16.777 7.511 16.777 16.777z"></path>
<path fill="#3863a7" d="M669.168 780.631c0 9.266-7.511 16.777-16.777 16.777s-16.777-7.511-16.777-16.777c0-9.266 7.511-16.777 16.777-16.777s16.777 7.511 16.777 16.777z"></path>
<path fill="#3863a7" d="M662.997 780.631c0 5.858-4.749 10.606-10.606 10.606s-10.606-4.749-10.606-10.606c0-5.858 4.749-10.606 10.606-10.606s10.606 4.749 10.606 10.606z"></path>
<path fill="#3863a7" d="M590.487 374.695c0 4.899-3.972 8.871-8.871 8.871s-8.871-3.972-8.871-8.871c0-4.899 3.972-8.871 8.871-8.871s8.871 3.972 8.871 8.871z"></path>
<path fill="#004060" d="M1140.478 918.9l26.227-165.46h37.026l-26.227 165.46h-37.026z"></path>
<path fill="#004060" d="M1200.452 918.9l26.227-165.46h37.219l41.076 97.772 15.427-97.772h37.026l-26.227 165.46h-36.833l-41.654-96.036-15.235 96.036h-37.026z"></path>
<path fill="#004060" d="M1352.22 918.9l26.227-165.46h37.219l41.076 97.772 15.427-97.772h37.026l-26.227 165.46h-36.64l-41.654-96.036-15.235 96.036h-37.219z"></path>
<path fill="#004060" d="M1564.155 754.79c5.592-1.157 10.221-1.736 14.463-2.121 4.050-0.193 9.256-0.386 15.62-0.386 6.171 0 11.763 0.386 16.392 0.964s9.256 1.736 13.885 3.471c4.628 1.736 8.485 3.857 11.956 6.557 10.414 9.064 15.62 24.491 15.62 46.090 0 9.642-0.964 20.056-2.507 31.048-1.736 10.992-3.857 20.634-6.171 28.541s-5.014 14.656-7.714 20.056c-2.7 5.592-5.978 10.221-10.028 14.078-3.857 3.857-7.714 6.942-11.378 9.064s-8.099 3.857-13.499 5.014c-8.292 1.736-17.163 2.7-26.612 2.7s-16.392-0.193-21.213-0.771c-4.628-0.579-9.256-1.543-14.078-3.085-4.628-1.543-8.678-3.664-11.763-6.364-7.328-6.171-12.149-14.849-14.27-26.227-0.964-5.207-1.35-10.028-1.35-14.078s0-8.485 0.193-13.306c0-4.821 0.964-12.535 2.7-23.141s3.857-20.249 6.364-28.541c2.507-8.292 5.207-15.427 7.907-21.020s6.171-10.414 10.221-14.27c4.050-3.857 7.907-6.942 11.571-9.064 3.664-2.507 8.099-4.050 13.692-5.207zM1561.648 798.951c-1.928 3.857-3.664 8.678-5.4 14.849s-3.471 14.463-5.014 25.070c-1.736 10.606-2.507 17.549-2.507 21.213s0.193 6.75 0.386 9.449c0.193 2.7 0.771 5.207 1.736 7.328s2.507 4.050 4.628 5.592c3.664 2.314 9.642 3.664 17.934 3.664s14.656-1.35 19.284-3.857c4.435-2.507 8.292-7.328 11.571-14.27 3.085-6.942 5.592-16.199 7.521-27.384 2.121-13.306 3.085-22.756 3.085-28.155s-0.386-10.028-0.964-13.499c-0.579-3.471-2.121-5.978-4.435-7.907s-5.014-3.085-7.714-3.857c-2.893-0.579-6.75-0.964-11.763-0.964s-8.871 0.193-11.956 0.771c-3.085 0.579-5.978 1.736-8.871 3.664-3.278 1.736-5.592 4.435-7.521 8.292z"></path>
<path fill="#004060" d="M1665.012 753.44h39.147l13.113 118.406 52.453-118.406h41.076l-78.68 165.46h-43.776l-23.334-165.46z"></path>
<path fill="#004060" d="M1764.713 918.9l80.223-165.46h43.004l26.034 165.46h-37.99l-5.785-33.169h-48.597l-15.62 33.169h-41.269zM1835.679 853.719h31.434l-7.521-53.032-23.913 53.032z"></path>
<path fill="#004060" d="M1920.337 787.188l5.4-33.748h124.963l-5.4 33.748h-44.74l-20.827 131.712h-37.026l20.827-131.712h-43.197z"></path>
<path fill="#004060" d="M2040.672 918.9l26.227-165.46h37.026l-26.227 165.46h-37.026z"></path>
<path fill="#004060" d="M2160.428 754.79c5.592-1.157 10.221-1.736 14.463-2.121 4.050-0.193 9.256-0.386 15.62-0.386 6.171 0 11.763 0.386 16.392 0.964s9.256 1.736 13.885 3.471c4.628 1.736 8.485 3.857 11.956 6.557 10.414 9.064 15.62 24.491 15.62 46.090 0 9.642-0.771 20.056-2.507 31.048s-3.857 20.634-6.171 28.541c-2.314 7.907-5.014 14.656-7.714 20.056-2.7 5.592-5.978 10.221-10.028 14.078-3.857 3.857-7.714 6.942-11.378 9.064s-8.099 3.857-13.499 5.014c-8.292 1.736-17.163 2.7-26.612 2.7s-16.392-0.193-21.213-0.771c-4.628-0.579-9.256-1.543-14.078-3.085-4.628-1.543-8.678-3.664-11.763-6.364-7.328-6.171-12.149-14.849-14.27-26.227-0.964-5.207-1.35-10.028-1.35-14.078s0-8.485 0.193-13.306c0-4.821 0.964-12.535 2.7-23.141s3.857-20.249 6.364-28.541c2.507-8.292 5.207-15.427 7.907-21.020s6.171-10.414 10.221-14.27c4.050-3.857 7.907-6.942 11.571-9.064 3.664-2.507 8.292-4.050 13.692-5.207zM2157.921 798.951c-1.928 3.857-3.664 8.678-5.4 14.849s-3.471 14.463-5.014 25.070c-1.736 10.606-2.507 17.549-2.507 21.213s0.193 6.75 0.386 9.449 0.771 5.207 1.736 7.328c0.964 2.121 2.507 4.050 4.628 5.592 3.664 2.314 9.642 3.664 17.934 3.664s14.656-1.35 19.284-3.857c4.435-2.507 8.292-7.328 11.571-14.27 3.085-6.942 5.592-16.199 7.521-27.384 2.121-13.306 3.085-22.756 3.085-28.155s-0.386-10.028-0.964-13.499c-0.579-3.471-2.121-5.978-4.435-7.907s-5.014-3.085-7.714-3.857c-2.893-0.579-6.75-0.964-11.763-0.964s-8.871 0.193-11.956 0.771c-3.085 0.579-5.978 1.736-8.871 3.664-3.085 1.736-5.592 4.435-7.521 8.292z"></path>
<path fill="#004060" d="M2250.872 918.9l26.227-165.46h37.219l41.076 97.772 15.427-97.772h37.026l-26.227 165.46h-36.64l-41.654-96.036-15.235 96.036h-37.219z"></path>
<path fill="#004060" d="M2466.278 887.081c5.4 0 9.835-0.964 13.113-2.507 3.278-1.736 5.4-4.821 6.171-9.449l0.964-6.557c0.386-2.7 0.579-5.014 0.193-6.942-0.579-4.050-4.435-6.171-11.763-6.171h-19.67c-15.62 0-26.612-4.821-32.976-14.463-4.050-6.364-6.171-14.27-6.171-23.72 0-2.314 0.193-5.207 0.771-8.099l2.314-18.127c2.7-18.127 10.799-29.505 24.491-34.519 7.714-2.893 21.406-4.243 41.076-4.243s36.447 2.314 50.332 6.942l-4.435 28.927c-16.777-1.543-34.905-2.314-54.382-2.314-6.557 0-11.185 0.771-14.078 2.314s-4.821 5.207-5.785 10.992l-0.964 5.592c-0.386 1.736-0.386 3.664-0.386 5.785s0.771 4.050 2.507 5.592c1.736 1.543 5.592 2.314 11.763 2.314h20.634c6.171 0 11.571 0.964 16.199 3.085s8.292 4.628 10.606 7.714c5.207 7.135 7.907 14.849 7.907 22.563 0 3.471-0.193 7.521-0.386 12.149l-0.964 14.656c-0.964 16.006-6.364 27.191-16.006 33.362-5.785 3.857-11.378 6.171-16.97 6.942-7.135 0.964-16.392 1.543-27.769 1.543s-21.598-0.386-30.084-1.35c-8.678-0.964-17.356-2.893-25.841-5.785l4.435-28.927c13.885 1.928 32.398 2.7 55.153 2.7z"></path>
</svg>
